<svg width="20" height="20" viewBox="0 0 20 20" fill="none" xmlns="http://www.w3.org/2000/svg">
<g clip-path="url(#clip0_13642_3680)">
<path d="M11 19.9004H9V15.4004H11V19.9004ZM6.88867 14.5254L3.70703 17.708L2.29199 16.293L5.47461 13.1113L6.88867 14.5254ZM17.707 16.2939L16.293 17.708L13.1113 14.5254L14.5254 13.1113L17.707 16.2939ZM13.6611 8.5459L9.97559 12.2324L9.60742 11.8643L9.60645 11.8662L7.40039 9.66016L8.81445 8.24609L9.97266 9.4043L12.2471 7.13184L13.6611 8.5459ZM19.8994 11.001H15.3994V9.00098H19.8994V11.001ZM4.59961 11H0.0996094V9H4.59961V11ZM6.88867 5.47461L5.47461 6.88965L2.29297 3.70703L3.70703 2.29297L6.88867 5.47461ZM17.707 3.70703L14.5254 6.88965L13.1113 5.47559L16.293 2.29297L17.707 3.70703ZM11 4.60059H9V0.100586H11V4.60059Z" fill="black"/>
</g>
<defs>
<clipPath id="clip0_13642_3680">
<rect width="20" height="20" fill="white"/>
</clipPath>
</defs>
</svg>
